<svg viewBox="0 0 400 400" xmlns="http://www.w3.org/2000/svg" fill="none">
  <rect width="400" height="400" rx="16" fill="#F0F8FD"/>

  <polygon points="170,160 170,240 240,200" fill="#41A1D2" opacity="0.15" stroke="#41A1D2" stroke-width="2.5" stroke-linejoin="round"/>
  <text x="183" y="206" font-family="Inter,sans-serif" font-size="13" fill="#41A1D2" font-weight="700">A</text>

  <line x1="30" y1="200" x2="170" y2="200" stroke="#8C8C8C" stroke-width="1.5" stroke-dasharray="4 3" opacity="0.5"/>
  <path d="M35,200 Q48,178 61,200 Q74,222 87,200 Q100,178 113,200 Q126,222 139,200 Q152,178 165,200"
        stroke="#41A1D2" stroke-width="2.5" stroke-linecap="round"/>

  <line x1="240" y1="200" x2="380" y2="200" stroke="#8C8C8C" stroke-width="1.5" stroke-dasharray="4 3" opacity="0.5"/>

  <path d="M242,200 Q263,138 284,200 Q305,262 326,200 Q347,138 368,200"
        stroke="#e05555" stroke-width="2.5" stroke-linecap="round"/>

  <text x="80"  y="230" font-family="Inter,sans-serif" font-size="13" fill="#41A1D2" font-weight="600">u_вх</text>
  <text x="285" y="250" font-family="Inter,sans-serif" font-size="13" fill="#e05555" font-weight="600">u_вых</text>

  <ellipse cx="200" cy="100" rx="28" ry="16" stroke="#41A1D2" stroke-width="1.5" opacity="0.45"/>
  <text x="190" y="104" font-family="Inter,sans-serif" font-size="12" fill="#41A1D2" opacity="0.7" font-weight="600">LC</text>
  <line x1="200" y1="116" x2="200" y2="175" stroke="#41A1D2" stroke-width="1.5" stroke-dasharray="4 3" opacity="0.35"/>
</svg>
