<svg viewBox="0 0 400 400" xmlns="http://www.w3.org/2000/svg" fill="none">
  <rect width="400" height="400" rx="16" fill="#F0F8FD"/>

  <text x="30" y="155" font-family="Inter,sans-serif" font-size="12" fill="#8C8C8C">Вход</text>
  <line x1="30"  y1="235" x2="155" y2="235" stroke="#41A1D2" stroke-width="2" stroke-linecap="round"/>
  <line x1="30"  y1="170" x2="155" y2="170" stroke="#41A1D2" stroke-width="1" opacity="0.2"/>
  <line x1="92"  y1="235" x2="92"  y2="175" stroke="#41A1D2" stroke-width="10" stroke-linecap="round"/>
  <text x="83" y="252" font-family="Inter,sans-serif" font-size="12" fill="#8C8C8C">f₁</text>

  <line x1="155" y1="205" x2="185" y2="205" stroke="#41A1D2" stroke-width="2.5"/>
  <polygon points="185,200 195,205 185,210" fill="#41A1D2"/>
  <rect x="197" y="188" width="44" height="34" rx="8" fill="#41A1D2" opacity="0.12" stroke="#41A1D2" stroke-width="1.5"/>
  <text x="204" y="210" font-family="Inter,sans-serif" font-size="15" fill="#41A1D2" font-weight="700">×n</text>
  <line x1="241" y1="205" x2="258" y2="205" stroke="#41A1D2" stroke-width="2.5"/>
  <polygon points="258,200 268,205 258,210" fill="#41A1D2"/>

  <text x="265" y="155" font-family="Inter,sans-serif" font-size="12" fill="#8C8C8C">Выход</text>
  <line x1="265" y1="235" x2="385" y2="235" stroke="#41A1D2" stroke-width="2" stroke-linecap="round"/>
  <line x1="265" y1="170" x2="385" y2="170" stroke="#41A1D2" stroke-width="1" opacity="0.2"/>
  <line x1="282" y1="235" x2="282" y2="218" stroke="#41A1D2" stroke-width="7"  stroke-linecap="round" opacity="0.4"/>
  <line x1="306" y1="235" x2="306" y2="208" stroke="#41A1D2" stroke-width="7"  stroke-linecap="round" opacity="0.4"/>
  <line x1="330" y1="235" x2="330" y2="175" stroke="#e05555" stroke-width="10" stroke-linecap="round"/>
  <line x1="354" y1="235" x2="354" y2="212" stroke="#41A1D2" stroke-width="7"  stroke-linecap="round" opacity="0.4"/>
  <line x1="375" y1="235" x2="375" y2="220" stroke="#41A1D2" stroke-width="7"  stroke-linecap="round" opacity="0.4"/>
  <text x="322" y="252" font-family="Inter,sans-serif" font-size="12" fill="#e05555" font-weight="600">nf₁</text>
</svg>