<svg viewBox="0 0 400 400" xmlns="http://www.w3.org/2000/svg" fill="none">
  <rect width="400" height="400" rx="16" fill="#F0F8FD"/>

  <text x="18" y="138" font-family="Inter,sans-serif" font-size="11" fill="#41A1D2" font-weight="600">Сигнал fН</text>
  <path d="M20,165 Q32,148 44,165 Q56,182 68,165 Q80,148 92,165 Q104,182 116,165"
        stroke="#41A1D2" stroke-width="2.5" stroke-linecap="round"/>
  <line x1="116" y1="165" x2="163" y2="200" stroke="#41A1D2" stroke-width="2" stroke-dasharray="5 3"/>
  <polygon points="153,201 167,203 161,191" fill="#41A1D2"/>

  <text x="18" y="298" font-family="Inter,sans-serif" font-size="11" fill="#8C8C8C" font-weight="600">Гетеродин fГ</text>
  <path d="M20,270 Q26,258 32,270 Q38,282 44,270 Q50,258 56,270 Q62,282 68,270 Q74,258 80,270 Q86,282 92,270 Q98,258 104,270 Q110,282 116,270"
        stroke="#8C8C8C" stroke-width="2" stroke-linecap="round"/>
  <line x1="116" y1="270" x2="163" y2="235" stroke="#8C8C8C" stroke-width="2" stroke-dasharray="5 3"/>
  <polygon points="157,235 167,232 162,241" fill="#8C8C8C"/>

  <circle cx="185" cy="217" r="22" stroke="#41A1D2" stroke-width="2.5" fill="white"/>
  <line x1="171" y1="203" x2="199" y2="231" stroke="#41A1D2" stroke-width="2.5" stroke-linecap="round"/>
  <line x1="199" y1="203" x2="171" y2="231" stroke="#41A1D2" stroke-width="2.5" stroke-linecap="round"/>

  <line x1="207" y1="217" x2="240" y2="217" stroke="#41A1D2" stroke-width="2.5"/>
  <polygon points="239,212 249,217 239,222" fill="#41A1D2"/>

  <rect x="250" y="195" width="60" height="44" rx="10" fill="#41A1D2" opacity="0.08" stroke="#41A1D2" stroke-width="2"/>
  <text x="261" y="212" font-family="Inter,sans-serif" font-size="12" fill="#41A1D2" font-weight="700">LC</text>
  <text x="256" y="228" font-family="Inter,sans-serif" font-size="10" fill="#8C8C8C">f_ПР</text>

  <line x1="310" y1="217" x2="345" y2="217" stroke="#e05555" stroke-width="2.5"/>
  <polygon points="345,212 355,217 345,222" fill="#e05555"/>

  <text x="355" y="200" font-family="Inter,sans-serif" font-size="11" fill="#e05555" font-weight="600">f_ПР</text>
  <path d="M357,217 Q366,204 375,217 Q384,230 393,217"
        stroke="#e05555" stroke-width="2.5" stroke-linecap="round"/>
</svg>
